<svg width="339" height="104" viewBox="0 0 339 104" fill="none" xmlns="http://www.w3.org/2000/svg">
<g filter="url(#filter0_d_1_27)">
<path d="M53.4723 17.9844L48.778 45H42.5621L47.2565 17.9844H53.4723ZM59.818 17.9844L58.9459 23.0127H40.1871L41.0778 17.9844H59.818ZM62.4528 17.9844L71.0992 18.0029C72.6949 18.04 74.068 18.3864 75.2184 19.042C76.3811 19.6852 77.2532 20.6006 77.8346 21.7881C78.416 22.9632 78.651 24.361 78.5397 25.9814C78.4407 27.3545 78.1809 28.5544 77.7604 29.5811C77.3398 30.6077 76.7275 31.5046 75.9235 32.2715C75.1318 33.026 74.1298 33.694 72.9176 34.2754L70.691 35.4629H63.3434L64.1783 30.4346L68.8541 30.4902C69.6211 30.4655 70.2395 30.2738 70.7096 29.915C71.1796 29.5439 71.5384 29.0677 71.7858 28.4863C72.0332 27.8926 72.194 27.2555 72.2682 26.5752C72.3424 26.1175 72.3981 25.6227 72.4352 25.0908C72.4723 24.5465 72.3857 24.0827 72.1754 23.6992C71.9651 23.3034 71.5384 23.0807 70.8951 23.0312L67.7965 23.0127L63.9557 45H57.7955L62.4528 17.9844ZM69.5221 45L66.9615 33.0508L73.233 33.0137L76.1461 44.6846V45H69.5221ZM92.233 23.959L83.7906 45H76.9625L89.7281 17.9844H94.0328L92.233 23.959ZM92.4557 45L91.2682 23.3281L91.4166 17.9844H95.5172L98.9313 45H92.4557ZM94.3668 34.9248L93.4762 39.9531H82.0836L82.9742 34.9248H94.3668ZM124.574 17.9844L119.898 45H113.868L110.157 27.9482L107.188 45H101.009L105.667 17.9844H111.734L115.445 35.0361L118.395 17.9844H124.574ZM135.725 37.6709C135.812 37.1885 135.818 36.7555 135.744 36.3721C135.67 35.9886 135.521 35.6546 135.298 35.3701C135.088 35.0732 134.81 34.8011 134.464 34.5537C134.13 34.3063 133.758 34.0775 133.35 33.8672C132.447 33.4342 131.6 32.9518 130.808 32.4199C130.017 31.8757 129.318 31.2633 128.712 30.583C128.118 29.9027 127.666 29.1357 127.357 28.2822C127.06 27.4287 126.943 26.4515 127.005 25.3506C127.079 24.1136 127.394 23.0127 127.951 22.0479C128.507 21.0706 129.237 20.2542 130.14 19.5986C131.043 18.9307 132.051 18.4297 133.165 18.0957C134.278 17.7493 135.41 17.5885 136.56 17.6133C138.218 17.638 139.609 18.0215 140.735 18.7637C141.861 19.5059 142.708 20.5078 143.277 21.7695C143.846 23.0312 144.112 24.4414 144.075 26L137.933 26.0186C137.946 25.5114 137.933 24.9919 137.896 24.46C137.859 23.9281 137.704 23.4827 137.432 23.124C137.172 22.7529 136.709 22.5612 136.041 22.5488C135.509 22.5365 135.039 22.6663 134.63 22.9385C134.222 23.2106 133.888 23.5693 133.629 24.0146C133.381 24.4476 133.214 24.9115 133.128 25.4062C133.053 25.8268 133.084 26.2103 133.22 26.5566C133.356 26.903 133.561 27.2184 133.833 27.5029C134.105 27.7874 134.408 28.041 134.742 28.2637C135.088 28.4863 135.416 28.6842 135.725 28.8574C136.702 29.3027 137.581 29.8037 138.36 30.3604C139.139 30.917 139.801 31.5479 140.345 32.2529C140.902 32.9456 141.31 33.7373 141.57 34.6279C141.842 35.5062 141.941 36.5081 141.867 37.6338C141.78 38.8955 141.483 40.015 140.976 40.9922C140.469 41.957 139.801 42.7734 138.972 43.4414C138.144 44.097 137.197 44.5918 136.133 44.9258C135.07 45.2474 133.925 45.402 132.701 45.3896C131.352 45.3525 130.146 45.1113 129.083 44.666C128.031 44.2083 127.147 43.5713 126.429 42.7549C125.712 41.9385 125.174 40.9798 124.815 39.8789C124.456 38.7656 124.289 37.5472 124.314 36.2236L130.548 36.2422C130.511 36.7865 130.499 37.3122 130.511 37.8193C130.524 38.3265 130.604 38.778 130.753 39.1738C130.901 39.5697 131.155 39.8851 131.513 40.1201C131.884 40.3428 132.41 40.4541 133.09 40.4541C133.647 40.4541 134.105 40.3304 134.464 40.083C134.822 39.8232 135.101 39.4831 135.298 39.0625C135.509 38.6296 135.651 38.1657 135.725 37.6709ZM157.416 35.8711L163.446 35.7969C163.396 37.7389 162.908 39.4398 161.98 40.8994C161.065 42.3467 159.84 43.4661 158.306 44.2578C156.785 45.0371 155.059 45.4082 153.13 45.3711C151.447 45.334 150.062 44.9691 148.973 44.2764C147.885 43.5713 147.044 42.6436 146.45 41.4932C145.856 40.3304 145.479 39.0439 145.318 37.6338C145.17 36.2236 145.182 34.8011 145.355 33.3662L145.949 29.5996C146.172 28.1029 146.549 26.637 147.081 25.2021C147.625 23.7549 148.349 22.4499 149.252 21.2871C150.155 20.1243 151.249 19.209 152.536 18.541C153.835 17.873 155.331 17.5576 157.026 17.5947C158.993 17.6318 160.589 18.0833 161.813 18.9492C163.038 19.8151 163.935 20.9779 164.504 22.4375C165.073 23.8971 165.351 25.5361 165.339 27.3545L159.123 27.3174C159.234 26.5257 159.265 25.7897 159.215 25.1094C159.178 24.4167 158.968 23.8477 158.585 23.4023C158.214 22.957 157.552 22.7158 156.599 22.6787C155.696 22.6416 154.973 22.8457 154.428 23.291C153.884 23.7363 153.47 24.3239 153.185 25.0537C152.901 25.7712 152.69 26.5319 152.554 27.3359C152.431 28.14 152.325 28.8822 152.239 29.5625L151.682 33.3848C151.62 33.9167 151.521 34.5661 151.385 35.333C151.262 36.0999 151.206 36.8545 151.218 37.5967C151.243 38.3389 151.416 38.9697 151.738 39.4893C152.072 39.9964 152.666 40.2747 153.519 40.3242C154.459 40.349 155.208 40.1696 155.764 39.7861C156.321 39.3903 156.723 38.8522 156.97 38.1719C157.23 37.4792 157.379 36.7122 157.416 35.8711ZM178.438 23.959L169.996 45H163.168L175.933 17.9844H180.238L178.438 23.959ZM178.661 45L177.473 23.3281L177.622 17.9844H181.722L185.136 45H178.661ZM180.572 34.9248L179.681 39.9531H168.289L169.179 34.9248H180.572ZM191.89 17.9844L200.537 18.0029C202.132 18.04 203.505 18.3864 204.656 19.042C205.819 19.6852 206.691 20.6006 207.272 21.7881C207.853 22.9632 208.089 24.361 207.977 25.9814C207.878 27.3545 207.618 28.5544 207.198 29.5811C206.777 30.6077 206.165 31.5046 205.361 32.2715C204.569 33.026 203.567 33.694 202.355 34.2754L200.129 35.4629H192.781L193.616 30.4346L198.292 30.4902C199.059 30.4655 199.677 30.2738 200.147 29.915C200.617 29.5439 200.976 29.0677 201.223 28.4863C201.471 27.8926 201.631 27.2555 201.706 26.5752C201.78 26.1175 201.836 25.6227 201.873 25.0908C201.91 24.5465 201.823 24.0827 201.613 23.6992C201.403 23.3034 200.976 23.0807 200.333 23.0312L197.234 23.0127L193.393 45H187.233L191.89 17.9844ZM198.96 45L196.399 33.0508L202.671 33.0137L205.584 44.6846V45H198.96ZM229.092 30.5645L227.385 41.8457C226.631 42.6868 225.722 43.3672 224.658 43.8867C223.594 44.4062 222.481 44.7835 221.318 45.0186C220.155 45.266 219.023 45.3773 217.922 45.3525C216.253 45.3278 214.849 45 213.711 44.3691C212.585 43.7259 211.707 42.86 211.076 41.7715C210.445 40.6706 210.031 39.4274 209.833 38.042C209.647 36.6566 209.647 35.2217 209.833 33.7373L210.519 29.2842C210.717 27.7256 211.094 26.2412 211.651 24.8311C212.208 23.4209 212.931 22.1654 213.822 21.0645C214.725 19.9635 215.826 19.1038 217.125 18.4854C218.423 17.8545 219.933 17.5576 221.652 17.5947C223.582 17.6195 225.153 18.0215 226.365 18.8008C227.589 19.5677 228.48 20.6377 229.037 22.0107C229.606 23.3838 229.878 24.9919 229.853 26.835L223.916 26.7979C223.953 26.1175 223.94 25.4619 223.879 24.8311C223.817 24.2002 223.606 23.6807 223.248 23.2725C222.901 22.8519 222.308 22.623 221.466 22.5859C220.576 22.5365 219.846 22.722 219.277 23.1426C218.708 23.5508 218.25 24.1012 217.904 24.7939C217.57 25.4867 217.316 26.2288 217.143 27.0205C216.982 27.8122 216.859 28.5482 216.772 29.2285L216.104 33.7559C216.03 34.3743 215.956 35.0609 215.881 35.8154C215.807 36.5576 215.82 37.2751 215.919 37.9678C216.018 38.6481 216.271 39.2109 216.679 39.6562C217.1 40.1016 217.755 40.3304 218.646 40.3428C219.03 40.3551 219.351 40.3118 219.611 40.2129C219.883 40.1139 220.149 39.9902 220.409 39.8418C220.669 39.6934 220.959 39.5573 221.281 39.4336L222.153 35.0361H219.017L219.797 30.5645H229.092ZM251.636 29.3584L251.005 33.4404C250.783 35.0114 250.387 36.5205 249.818 37.9678C249.261 39.4027 248.519 40.6829 247.591 41.8086C246.664 42.9342 245.532 43.8249 244.196 44.4805C242.872 45.1237 241.345 45.4206 239.613 45.3711C237.955 45.334 236.57 44.9753 235.457 44.2949C234.343 43.6146 233.471 42.7178 232.84 41.6045C232.21 40.4788 231.795 39.2233 231.597 37.8379C231.399 36.4401 231.387 35.0114 231.56 33.5518L232.172 29.4512C232.395 27.9173 232.785 26.4329 233.341 24.998C233.91 23.5632 234.665 22.2829 235.605 21.1572C236.545 20.0192 237.677 19.1348 239.001 18.5039C240.337 17.8607 241.87 17.5638 243.602 17.6133C245.235 17.638 246.602 17.9906 247.703 18.6709C248.816 19.3512 249.688 20.248 250.319 21.3613C250.962 22.4746 251.383 23.7301 251.581 25.1279C251.791 26.5133 251.81 27.9235 251.636 29.3584ZM244.734 33.5518L245.365 29.3955C245.427 28.8636 245.495 28.2327 245.569 27.5029C245.643 26.7607 245.643 26.0309 245.569 25.3135C245.495 24.596 245.278 23.9899 244.92 23.4951C244.561 23.0003 243.986 22.7344 243.194 22.6973C242.254 22.6354 241.499 22.821 240.93 23.2539C240.361 23.6745 239.91 24.2373 239.576 24.9424C239.254 25.6351 239.013 26.3835 238.852 27.1875C238.691 27.9792 238.561 28.7275 238.463 29.4326L237.85 33.5703C237.788 34.1022 237.714 34.7393 237.628 35.4814C237.553 36.2113 237.547 36.9411 237.609 37.6709C237.671 38.4007 237.881 39.013 238.24 39.5078C238.611 40.0026 239.199 40.2686 240.003 40.3057C240.906 40.3551 241.642 40.1634 242.211 39.7305C242.792 39.2975 243.25 38.7285 243.584 38.0234C243.93 37.3184 244.184 36.57 244.344 35.7783C244.518 34.9743 244.647 34.2321 244.734 33.5518Z" fill="#A7A7EB"/>
</g>
<g filter="url(#filter1_d_1_27)">
<path d="M335 51.9048L260 8.60349V95.206L335 51.9048ZM15.744 59.4048H267.5V44.4048H15.744V59.4048Z" fill="#A7A7EB"/>
</g>
<defs>
<filter id="filter0_d_1_27" x="36.1871" y="17.5391" width="219.709" height="35.9062" filterUnits="userSpaceOnUse" color-interpolation-filters="sRGB">
<feFlood flood-opacity="0" result="BackgroundImageFix"/>
<feColorMatrix in="SourceAlpha" type="matrix" values="0 0 0 0 0 0 0 0 0 0 0 0 0 0 0 0 0 0 127 0" result="hardAlpha"/>
<feOffset dy="4"/>
<feGaussianBlur stdDeviation="2"/>
<feComposite in2="hardAlpha" operator="out"/>
<feColorMatrix type="matrix" values="0 0 0 0 0 0 0 0 0 0 0 0 0 0 0 0 0 0 0.25 0"/>
<feBlend mode="normal" in2="BackgroundImageFix" result="effect1_dropShadow_1_27"/>
<feBlend mode="normal" in="SourceGraphic" in2="effect1_dropShadow_1_27" result="shape"/>
</filter>
<filter id="filter1_d_1_27" x="11.744" y="8.60349" width="327.256" height="94.6025" filterUnits="userSpaceOnUse" color-interpolation-filters="sRGB">
<feFlood flood-opacity="0" result="BackgroundImageFix"/>
<feColorMatrix in="SourceAlpha" type="matrix" values="0 0 0 0 0 0 0 0 0 0 0 0 0 0 0 0 0 0 127 0" result="hardAlpha"/>
<feOffset dy="4"/>
<feGaussianBlur stdDeviation="2"/>
<feComposite in2="hardAlpha" operator="out"/>
<feColorMatrix type="matrix" values="0 0 0 0 0 0 0 0 0 0 0 0 0 0 0 0 0 0 0.25 0"/>
<feBlend mode="normal" in2="BackgroundImageFix" result="effect1_dropShadow_1_27"/>
<feBlend mode="normal" in="SourceGraphic" in2="effect1_dropShadow_1_27" result="shape"/>
</filter>
</defs>
</svg>
